<svg xmlns="http://www.w3.org/2000/svg" version="1.1" xmlns:xlink="http://www.w3.org/1999/xlink" xmlns:svgjs="http://svgjs.com/svgjs" width="512" height="512"><svg xmlns="http://www.w3.org/2000/svg" viewBox="0 0 512 512"><title>favicon</title><path d="M377.05,254.6A173.31,173.31,0,0,0,373.61,221c-18-88.33-89.41-138.61-183.91-153.21-33.87-5.23-98.76-1.94-136.57,21.8C65,137.28,109.7,192.33,165.93,218.76c36,16.94,76.13,27.85,109.89,33-17.47,7.29-126.13,11.45-216.94-34.1L18.74,446.39c8.46,0,88.34-1.8,107.85-3.48C292,428.74,351.89,373,370.12,309.66c-1.68,41.91-18.63,103.81-59.95,136.73,46.19-12.33,78.81-29.68,101.57-50.1a139.91,139.91,0,0,0,44.48-79.88l17.38-98C445.37,241.67,404.5,253.89,377.05,254.6Zm-101.16-2.76-.07,0h.07Z"></path><path d="M493.26,106.72s-10.62,60.54-10.66,60.78a51.54,51.54,0,1,1-50.8-60.78Z"></path></svg><style>@media (prefers-color-scheme: light) { :root { filter: none; } }
@media (prefers-color-scheme: dark) { :root { filter: invert(100%); } }
</style></svg>